<svg version="1.1" id="Layer_1" xmlns="http://www.w3.org/2000/svg" xmlns:xlink="http://www.w3.org/1999/xlink" x="0px" y="0px"
	 width="563.5px" height="149.563px" viewBox="0 0 563.5 149.563" enable-background="new 0 0 563.5 149.563" xml:space="preserve">
<g id="Layer_1">
	<style type="text/css">
		path{
			fill: #fbba34;
			stroke: #fff;
			stroke-dasharray: 1300;
			stroke-width: 1px;
			animation: my_animation 4s infinite;

		}

		@keyframes my_animation{
			0%{
			  	stroke-dashoffset: 0;
			}
			50%{
				stroke-dashoffset: 1300;
			}
			100%{
				stroke-dashoffset: 0;
			}
		}
	</style>
	<path fill="none" stroke="#000000" stroke-miterlimit="10" d="M13.725,121.259c0,0,2.036-0.595,5.889-1.586
		c1.925-0.501,4.301-1.105,7.104-1.769c2.797-0.696,6.03-1.418,9.649-2.229c3.614-0.845,7.648-1.619,12.024-2.546
		c4.388-0.864,9.146-1.745,14.229-2.682c10.187-1.75,21.702-3.644,34.333-5.234c3.156-0.403,6.38-0.813,9.665-1.233
		c3.293-0.349,6.647-0.704,10.061-1.066c3.416-0.333,6.88-0.782,10.416-1.036c3.534-0.287,7.121-0.579,10.757-0.874
		c1.819-0.147,3.65-0.296,5.493-0.445c1.846-0.103,3.705-0.205,5.574-0.309c3.739-0.198,7.525-0.399,11.353-0.604
		c0.957-0.05,1.917-0.1,2.879-0.148c0.963-0.025,1.93-0.05,2.896-0.076c1.937-0.05,3.882-0.101,5.838-0.152
		c3.912-0.102,7.861-0.202,11.843-0.306c3.984,0.011,8.002,0.022,12.048,0.034c2.023,0.006,4.056,0.012,6.092,0.017l3.063,0.009
		l3.07,0.1c4.101,0.139,8.226,0.277,12.372,0.417c2.073,0.07,4.151,0.141,6.234,0.211c2.135,0.097,4.166,0.239,6.26,0.355
		c4.161,0.248,8.339,0.496,12.528,0.745c4.186,0.22,8.408,0.611,12.626,0.91c4.221,0.327,8.449,0.654,12.683,0.982
		c4.221,0.373,8.445,0.745,12.67,1.118c16.902,1.47,33.762,3.191,50.355,4.718c8.291,0.753,16.516,1.5,24.641,2.238
		c4.061,0.364,8.094,0.727,12.101,1.087c4.004,0.326,7.979,0.65,11.922,0.972c7.879,0.769,15.634,1.166,23.216,1.801
		c3.792,0.331,7.544,0.482,11.251,0.696c3.707,0.224,7.369,0.445,10.981,0.664c7.226,0.311,14.258,0.502,21.063,0.749
		c6.806,0.063,13.381,0.125,19.693,0.185c6.313-0.135,12.361-0.264,18.116-0.387c2.884-0.005,5.676-0.25,8.398-0.388
		c2.724-0.15,5.37-0.296,7.934-0.438c2.564-0.142,5.054-0.24,7.448-0.405c2.391-0.224,4.693-0.439,6.906-0.646
		c4.437-0.389,8.512-0.746,12.193-1.068c14.7-1.771,23.101-2.783,23.101-2.783l0.175,0.884c0,0-2.065,0.479-5.939,1.38
		c-1.941,0.44-4.336,0.985-7.151,1.625c-1.41,0.315-2.925,0.656-4.542,1.019c-1.62,0.347-3.331,0.788-5.168,1.068
		c-3.667,0.629-7.729,1.327-12.148,2.086c-2.215,0.366-4.521,0.748-6.913,1.143c-2.398,0.336-4.893,0.613-7.467,0.938
		c-2.577,0.308-5.236,0.625-7.975,0.952c-2.742,0.297-5.557,0.706-8.462,0.878c-5.804,0.441-11.913,0.938-18.295,1.34
		c-6.391,0.22-13.045,0.448-19.934,0.686c-6.886-0.041-14.013-0.021-21.334-0.116c-7.31-0.246-14.836-0.402-22.5-0.867
		c-7.66-0.462-15.499-0.93-23.429-1.652c-3.967-0.359-7.967-0.724-11.996-1.09c-4.022-0.392-8.067-0.852-12.138-1.292
		c-8.15-0.847-16.36-1.888-24.647-2.874c-16.56-2.028-33.364-4.064-50.17-5.937c-4.203-0.456-8.404-0.911-12.604-1.366
		c-4.195-0.409-8.386-0.817-12.569-1.226c-4.188-0.38-8.343-0.852-12.536-1.155c-4.184-0.332-8.354-0.664-12.511-0.994
		c-2.063-0.157-4.181-0.348-6.19-0.478c-2.063-0.109-4.121-0.221-6.175-0.331c-4.106-0.221-8.194-0.439-12.257-0.657l-3.043-0.159
		l-3.037-0.069c-2.021-0.046-4.036-0.091-6.043-0.137c-4.016-0.091-8.003-0.183-11.957-0.272c-3.956,0.023-7.878,0.047-11.764,0.07
		c-1.943,0.012-3.877,0.023-5.801,0.036c-0.962,0.006-1.922,0.012-2.879,0.017c-0.957,0.031-1.911,0.062-2.862,0.092
		c-3.808,0.126-7.573,0.251-11.293,0.374c-1.861,0.059-3.71,0.115-5.548,0.173c-1.835,0.102-3.659,0.202-5.471,0.304
		c-3.624,0.201-7.197,0.399-10.719,0.596c-3.523,0.163-6.979,0.522-10.387,0.767c-3.405,0.272-6.752,0.542-10.039,0.807
		c-3.28,0.334-6.498,0.661-9.65,0.981c-12.614,1.265-24.132,2.856-34.329,4.343c-5.088,0.805-9.852,1.561-14.248,2.312
		c-4.386,0.801-8.434,1.449-12.06,2.186c-3.633,0.7-6.878,1.325-9.687,1.936c-2.816,0.578-5.202,1.11-7.135,1.553
		c-3.863,0.873-5.911,1.405-5.911,1.405L13.725,121.259z"/>
</g>
<path fill-rule="evenodd" clip-rule="evenodd" fill="none" stroke="#000000" stroke-miterlimit="10" d="M289.384,78.295
	c-2.301-1.611-2.721-3.771-1.985-6.204c0.782-2.592,2.954-3.248,5.31-3.566c-0.004-0.087,0.022-0.207-0.015-0.232
	c-3.993-2.659-4.729-6.597-4.244-10.968c0.788-7.121,4.973-10.88,12.422-11.147c3.349-0.12,6.607,0.34,9.688,1.793
	c0.354,0.167,1.002,0.061,1.352-0.167c1.235-0.808,2.389-1.741,3.596-2.592c1.435-1.012,2.115-0.821,3.451,0.901
	c0.918,1.182,0.839,1.669-0.473,2.787c-1.063,0.905-2.135,1.8-3.261,2.749c2.983,3.61,2.618,7.688,1.653,11.769
	c-1.041,4.406-4.323,7.336-8.969,7.772c-2.879,0.271-5.81-0.026-8.717-0.047c-1.593-0.012-3.189-0.045-4.777,0.054
	c-1.129,0.071-1.831,0.796-1.93,1.941c-0.101,1.174,0.676,1.818,1.673,2.013c2.308,0.448,4.646,0.731,6.962,1.144
	c2.902,0.518,5.862,0.867,8.674,1.703c4.558,1.355,6.399,4.489,5.87,9.251c-0.065,0.596-0.134,1.193-0.25,1.78
	c-0.947,4.787-3.403,7.121-8.381,7.593c-5.296,0.502-10.533-0.009-15.642-1.553c-3.625-1.095-6.147-3.248-6.487-7.257
	C284.57,83.882,285.573,80.511,289.384,78.295z M303.645,66.947c0.01-0.036,0.02-0.071,0.03-0.106
	c0.836-0.045,1.674-0.065,2.508-0.14c2.875-0.258,4.691-1.664,5.403-4.444c0.362-1.412,0.506-2.911,0.524-4.374
	c0.032-2.596-1.212-4.53-3.572-5.607c-3.184-1.455-6.525-1.795-9.931-0.944c-2.409,0.602-3.981,2.172-4.521,4.607
	c-0.273,1.235-0.4,2.525-0.413,3.792c-0.032,3.21,1.503,5.327,4.586,6.185C300.014,66.403,301.847,66.612,303.645,66.947z
	 M302.805,92.425c0.018-0.06,0.035-0.119,0.053-0.179c1.148-0.117,2.302-0.196,3.443-0.36c1.361-0.194,2.493-0.796,3.209-2.04
	c2.128-3.696,0.729-7.039-3.371-8.041c-0.039-0.01-0.079-0.015-0.118-0.021c-3.903-0.579-7.805-1.17-11.712-1.717
	c-0.354-0.05-0.792,0.114-1.116,0.305c-2.491,1.457-3.09,3.797-2.941,6.463c0.136,2.441,1.719,3.644,3.858,4.098
	C296.983,91.543,299.904,91.937,302.805,92.425z"/>
<path fill-rule="evenodd" clip-rule="evenodd" fill="none" stroke="#000000" stroke-miterlimit="10" d="M58.169,75.425
	c-1.683,0.277-3.176,0.522-4.668,0.771c-1.668,0.279-2.147-0.063-2.442-1.759c-0.295-1.691,0.053-2.188,1.718-2.466
	c1.926-0.32,3.852-0.644,5.83-0.975c0.413-5.121,0.819-10.168,1.243-15.424c-1.893,0.3-3.685,0.583-5.475,0.868
	c-0.197,0.031-0.39,0.087-0.587,0.119c-2.272,0.361-2.993-0.272-2.967-2.589c0.011-0.948,0.579-1.333,1.42-1.474
	c2.325-0.388,4.646-0.806,6.977-1.154c0.67-0.1,0.936-0.319,0.984-1.034c0.184-2.71,0.456-5.415,0.678-8.123
	c0.168-2.056,1.934-3.361,3.923-2.753c0.341,0.105,0.71,0.843,0.694,1.274c-0.087,2.315-0.293,4.625-0.454,6.938
	c-0.061,0.868-0.111,1.736-0.175,2.734c3.521-0.584,6.9-1.121,10.263-1.747c0.253-0.047,0.52-0.714,0.56-1.115
	c0.276-2.783,0.481-5.572,0.735-8.358c0.151-1.666,2.567-3.025,4.063-2.222c0.318,0.171,0.522,0.869,0.498,1.31
	c-0.148,2.713-0.378,5.421-0.578,8.131c-0.032,0.426-0.052,0.854-0.087,1.432c1.566-0.264,3.011-0.508,4.456-0.749
	c2.122-0.353,3.469,1.232,2.668,3.233c-0.151,0.379-0.75,0.721-1.197,0.814c-1.798,0.374-3.626,0.601-5.42,0.984
	c-0.372,0.079-0.901,0.576-0.931,0.918c-0.422,4.736-0.77,9.479-1.131,14.221c-0.006,0.073,0.04,0.149,0.108,0.383
	c1.648-0.26,3.32-0.522,4.991-0.787c0.315-0.049,0.629-0.111,0.945-0.158c2.183-0.321,3.305,0.846,2.72,3.015
	c-0.125,0.464-0.927,0.943-1.489,1.057c-2.5,0.503-5.027,0.876-7.677,1.318c-0.236,2.949-0.493,5.884-0.699,8.821
	c-0.156,2.222-1.724,3.428-3.904,2.94c-0.887-0.198-0.789-0.91-0.75-1.53c0.16-2.593,0.36-5.183,0.532-7.774
	c0.034-0.508,0.005-1.021,0.005-1.646c-2.827,0.462-5.579,0.894-8.324,1.367c-2.297,0.396-2.303,0.418-2.511,2.789
	c-0.209,2.389-0.362,4.783-0.605,7.168c-0.159,1.553-2.708,2.888-4.06,2.086c-0.341-0.203-0.522-0.959-0.499-1.448
	c0.13-2.673,0.348-5.343,0.534-8.014C58.11,76.428,58.131,76.039,58.169,75.425z M63.23,70.242c3.324-0.557,6.5-1.123,9.69-1.598
	c0.823-0.123,1.136-0.372,1.185-1.24c0.139-2.473,0.403-4.938,0.602-7.409c0.185-2.298,0.348-4.599,0.529-7.009
	c-3.648,0.61-7.174,1.199-10.755,1.797C64.063,59.95,63.651,65.033,63.23,70.242z"/>
<path fill-rule="evenodd" clip-rule="evenodd" fill="none" stroke="#000000" stroke-miterlimit="10" d="M379.563,62.563
	c3.021,0.25,5.958,0.5,8.896,0.734c3.346,0.269,6.693,0.511,10.038,0.787c1.88,0.155,2.299,0.678,2.12,2.529
	c-0.027,0.279-0.07,0.556-0.106,0.833c-0.212,1.619-0.58,1.95-2.3,1.825c-3.268-0.238-6.531-0.53-9.796-0.793
	c-3.021-0.242-6.044-0.476-9.229-0.726c-0.154,1.825-0.304,3.556-0.446,5.288c-0.201,2.429-0.43,4.856-0.586,7.289
	c-0.158,2.459,0.654,3.398,3.08,3.598c6.094,0.502,12.188,0.977,18.283,1.469c0.823,0.066,1.978-0.015,2.053,1.002
	c0.093,1.255-0.203,2.569-0.542,3.8c-0.069,0.252-1.082,0.376-1.646,0.338c-3.866-0.262-7.73-0.567-11.593-0.888
	c-3.224-0.267-6.459-0.467-9.664-0.891c-3.779-0.499-5.678-2.644-5.518-6.419c0.216-5.067,0.667-10.125,1.056-15.185
	c0.425-5.538,0.891-11.073,1.346-16.608c0.046-0.556,0.119-1.112,0.226-1.659c0.708-3.651,2.678-5.41,6.379-5.332
	c3.271,0.069,6.538,0.405,9.805,0.651c3.665,0.276,7.33,0.569,10.992,0.89c0.881,0.077,2.162-0.108,2.341,0.976
	c0.197,1.195-0.043,2.516-0.367,3.708c-0.086,0.318-1.184,0.545-1.798,0.507c-3.189-0.196-6.373-0.496-9.559-0.752
	c-3.067-0.247-6.133-0.512-9.203-0.719c-2.2-0.148-3.12,0.603-3.334,2.804C380.14,55.23,379.874,58.849,379.563,62.563z"/>
<path fill-rule="evenodd" clip-rule="evenodd" fill="none" stroke="#000000" stroke-miterlimit="10" d="M223.372,44.137
	c0-1.544-0.038-3.09,0.007-4.633c0.111-3.832,0.253-7.662,0.397-11.493c0.063-1.677,0.404-1.985,2.113-2.009
	c2.902-0.041,3.249,0.262,3.157,3.08c-0.361,11.095-0.719,22.191-1.141,33.283c-0.117,3.086-0.948,5.993-2.934,8.458
	c-1.987,2.465-4.683,3.686-7.718,4.191c-3.382,0.564-6.776,0.484-10.117-0.305c-5.729-1.354-8.943-4.662-9.602-10.513
	c-0.559-4.961-0.466-10.002,0.529-14.914c1.273-6.284,5.543-9.644,12.194-9.897c1.706-0.065,3.443,0.018,5.131,0.27
	c3.105,0.465,5.783,1.78,7.56,4.555C223.089,44.187,223.23,44.162,223.372,44.137z M222.844,57.914c0-2.4,0.083-4.122-0.017-5.832
	c-0.229-3.92-2.041-6.378-5.595-7.09c-2.238-0.449-4.61-0.62-6.881-0.429c-4.637,0.389-6.73,2.241-7.25,6.795
	c-0.451,3.945-0.511,7.974-0.311,11.943c0.192,3.808,2.117,5.825,5.874,6.516c2.209,0.406,4.543,0.55,6.775,0.334
	c4.379-0.423,6.271-2.333,6.965-6.717C222.727,61.393,222.74,59.303,222.844,57.914z"/>
<path fill-rule="evenodd" clip-rule="evenodd" fill="none" stroke="#000000" stroke-miterlimit="10" d="M492.345,92.026
	c-1.926,0.059-3.731,0.226-5.522,0.132c-1.61-0.084-2.959-0.985-3.648-2.414c-1.123-2.324-2.172-4.706-2.986-7.151
	c-2.386-7.155-4.642-14.354-6.946-21.536c-0.823-2.565-0.54-2.974,2.094-3.041c1.943-0.049,2.521,0.368,3.125,2.254
	c2.509,7.83,5.019,15.659,7.531,23.488c0.134,0.417,0.278,0.833,0.446,1.237c0.865,2.097,1.96,2.812,4.026,2.647
	c2.062-0.164,3.053-0.975,3.545-3.254c0.8-3.707,1.486-7.439,2.208-11.164c0.903-4.664,1.786-9.333,2.694-13.997
	c0.403-2.071,3.16-3.325,4.987-2.194c0.355,0.22,0.57,1.044,0.489,1.529c-0.427,2.559-0.955,5.1-1.473,7.642
	c-1.832,8.999-3.631,18.006-5.535,26.99c-0.7,3.307-1.989,6.407-4.155,9.072c-2.4,2.955-5.536,4.493-9.302,4.825
	c-0.965,0.086-1.627-0.275-1.963-1.194c-0.109-0.3-0.221-0.6-0.307-0.905c-0.55-1.963-0.387-2.307,1.653-2.637
	c3.659-0.592,6.065-2.676,7.436-6.036C491.343,94.847,491.857,93.341,492.345,92.026z"/>
<path fill-rule="evenodd" clip-rule="evenodd" fill="none" stroke="#000000" stroke-miterlimit="10" d="M431.157,71.871
	c0.065-1.438,0.22-3.071,0.195-4.701c-0.035-2.395-1.181-4.083-3.468-4.953c-2.99-1.138-6.111-1.124-9.229-1.018
	c-1.392,0.048-2.774,0.325-4.165,0.454c-1.465,0.136-1.889-0.272-1.888-1.726c0.001-2.36,0.41-2.819,2.798-3.116
	c4.193-0.521,8.38-0.546,12.508,0.454c6.423,1.555,9.08,5.181,8.74,11.766c-0.215,4.188-0.436,8.377-0.631,12.566
	c-0.31,6.638-2.852,9.589-9.39,10.599c-3.661,0.565-7.342,0.479-10.93-0.572c-6.69-1.961-9.505-8.279-6.569-14.641
	c1.041-2.258,2.861-3.575,5.16-4.334c3.698-1.219,7.492-0.95,11.289-0.791C427.404,71.934,429.237,71.871,431.157,71.871z
	 M431.063,76.35c-1.496-0.092-2.763-0.239-4.028-0.232c-3.064,0.018-6.161-0.148-9.184,0.24c-2.951,0.379-4.294,2.356-4.397,5.396
	c-0.092,2.694,1.339,4.749,4.057,5.508c3.094,0.864,6.236,0.848,9.352,0.042c1.857-0.48,3.197-1.674,3.503-3.553
	C430.758,81.333,430.841,78.864,431.063,76.35z"/>
<path fill-rule="evenodd" clip-rule="evenodd" fill="none" stroke="#000000" stroke-miterlimit="10" d="M160.253,61.825
	c0-3.435-0.019-6.87,0.004-10.305c0.041-6.089,3.155-10.143,8.918-11.617c0.849-0.217,1.717-0.395,2.587-0.487
	c3.115-0.329,6.223-0.339,9.288,0.427c4.616,1.154,7.725,4.574,8.164,9.509c0.381,4.289,0.381,8.613,0.512,12.922
	c0.099,3.233,0.156,6.469,0.2,9.703c0.024,1.772-0.346,2.134-2.055,2.184c-3.185,0.095-3.291,0.03-3.368-3.193
	c-0.137-5.711-0.216-11.423-0.337-17.135c-0.024-1.157-0.078-2.318-0.207-3.467c-0.382-3.417-2.059-5.43-5.481-5.807
	c-2.541-0.28-5.203-0.216-7.718,0.224c-3.562,0.623-5.226,3.09-5.204,7.237c0.027,4.952,0.231,9.902,0.347,14.854
	c0.046,1.997,0.053,3.995,0.094,5.992c0.024,1.171-0.499,1.73-1.693,1.839c-3.197,0.291-3.586-0.008-3.607-3.178
	c-0.021-3.234-0.004-6.469-0.004-9.703C160.546,61.825,160.399,61.825,160.253,61.825z"/>
<path fill-rule="evenodd" clip-rule="evenodd" fill="none" stroke="#000000" stroke-miterlimit="10" d="M265.383,42.471
	c2.873,0.612,5.826,0.979,8.599,1.893c4.472,1.474,6.749,4.938,6.908,9.533c0.116,3.375-0.26,6.773-0.512,10.154
	c-0.32,4.302-0.744,8.596-1.108,12.894c-0.164,1.933-0.529,2.271-2.462,2.174c-0.16-0.008-0.318-0.029-0.477-0.046
	c-2.374-0.253-2.566-0.432-2.373-2.834c0.514-6.37,1.073-12.737,1.608-19.105c0.05-0.597,0.085-1.197,0.082-1.795
	c-0.024-3.956-1.605-6.12-5.465-6.854c-2.286-0.435-4.681-0.578-7.008-0.46c-3.496,0.176-5.611,2.563-5.98,6.477
	c-0.611,6.482-1.159,12.97-1.683,19.459c-0.255,3.166-0.414,3.354-3.503,3.04c-1.565-0.16-2.007-0.679-1.88-2.275
	c0.273-3.424,0.542-6.849,0.849-10.271c0.349-3.897,0.558-7.819,1.152-11.681c0.936-6.09,4.993-9.547,11.147-9.866
	c0.678-0.035,1.356-0.071,2.034-0.106C265.334,42.69,265.359,42.581,265.383,42.471z"/>
<path fill-rule="evenodd" clip-rule="evenodd" fill="none" stroke="#000000" stroke-miterlimit="10" d="M137.816,77.022
	c-3.395-0.041-5.923-0.343-8.263-1.519c-3.524-1.77-5.345-4.815-5.783-8.57c-0.574-4.915-0.845-9.866-1.231-14.803
	c-0.181-2.31-0.352-4.621-0.484-6.933c-0.117-2.046,0.202-2.389,2.194-2.558c0.12-0.01,0.238-0.026,0.358-0.036
	c2.179-0.18,2.58,0.193,2.737,2.385c0.475,6.613,0.949,13.227,1.476,19.836c0.082,1.021,0.348,2.052,0.684,3.023
	c0.907,2.621,2.959,3.744,5.58,4.013c2.653,0.272,5.278,0.072,7.823-0.729c3.192-1.005,4.775-3.511,4.521-7.157
	c-0.481-6.893-1.009-13.783-1.526-20.674c-0.125-1.665,0.266-2.177,1.9-2.399c0.198-0.027,0.396-0.054,0.595-0.072
	c2.197-0.199,2.653,0.11,2.82,2.304c0.536,7.009,1.208,14.015,1.463,21.035c0.254,7.007-3.403,11.161-10.318,12.323
	C140.593,76.789,138.796,76.911,137.816,77.022z"/>
<path fill-rule="evenodd" clip-rule="evenodd" fill="none" stroke="#000000" stroke-miterlimit="10" d="M98.289,50.557
	c-1.272,0.144-2.537,0.273-3.797,0.435c-0.994,0.128-1.816,0.09-2.095-1.158c-0.42-1.882-0.174-2.76,1.136-3.164
	c1.37-0.423,2.768-0.757,4.259-1.159c-0.199-1.754-0.404-3.488-0.591-5.225c-0.331-3.074-0.048-6.02,2.111-8.452
	c2-2.251,4.717-3.143,7.572-3.467c2.128-0.242,4.303-0.183,6.45-0.101c1.577,0.061,1.903,0.482,2.161,2.029
	c0.059,0.354,0.078,0.716,0.094,1.075c0.07,1.546-0.316,1.813-1.881,1.839c-2.384,0.041-4.813-0.014-7.136,0.43
	c-3.211,0.614-4.526,2.855-4.09,6.114c0.222,1.658,0.401,3.322,0.618,5.138c1.955-0.221,3.843-0.434,5.732-0.647
	c1.826-0.206,3.649-0.451,5.479-0.607c1.534-0.132,1.908,0.21,2.157,1.725c0.033,0.197,0.045,0.397,0.062,0.597
	c0.183,2.153-0.124,2.492-2.265,2.729c-3.487,0.387-6.97,0.811-10.583,1.234c0.333,2.905,0.653,5.712,0.978,8.518
	c0.731,6.311,1.473,12.621,2.193,18.934c0.151,1.322-0.256,1.814-1.577,2.066c-0.039,0.008-0.079,0.01-0.119,0.017
	c-3.088,0.552-3.415,0.245-3.759-2.857c-0.938-8.459-1.938-16.911-2.918-25.365C98.458,51.043,98.375,50.857,98.289,50.557z"/>
<path fill-rule="evenodd" clip-rule="evenodd" fill="none" stroke="#000000" stroke-miterlimit="10" d="M455.032,93.556
	c-2.657-0.439-5.931-0.901-9.168-1.548c-2.057-0.41-2.613-1.385-2.393-3.468c0.164-1.549,0.705-1.921,2.238-1.608
	c2.109,0.431,4.211,1.044,6.342,1.189c2.69,0.184,5.415,0.075,8.112-0.103c1.57-0.103,2.953-0.822,3.38-2.571
	c0.45-1.848-0.105-3.52-1.871-4.538c-2.518-1.452-5.176-2.659-7.767-3.984c-1.953-0.998-3.986-1.875-5.824-3.055
	c-3.939-2.529-5.206-7.892-3.012-12.057c0.953-1.81,2.503-2.937,4.393-3.478c5.546-1.588,11.059-1.302,16.476,0.639
	c1.401,0.502,2.164,3.266,1.152,4.378c-0.348,0.383-1.304,0.405-1.935,0.303c-1.965-0.319-3.892-0.967-5.862-1.133
	c-2.132-0.18-4.305-0.06-6.444,0.117c-1.53,0.126-2.913,0.787-3.346,2.463c-0.451,1.743,0.064,3.27,1.469,4.396
	c0.708,0.567,1.523,1.028,2.346,1.419c2.993,1.419,6.014,2.778,9.013,4.184c0.721,0.338,1.408,0.751,2.094,1.159
	c4.071,2.424,5.326,5.968,4.029,11.086c-0.88,3.471-3.722,4.838-6.931,5.456C459.611,93.172,457.647,93.264,455.032,93.556z"/>
<path fill-rule="evenodd" clip-rule="evenodd" fill="none" stroke="#000000" stroke-miterlimit="10" d="M353.194,87.298
	c-4.386-0.207-8.571-1.109-12.672-2.571c-2.366-0.844-2.352-2.497-1.62-4.584c0.396-1.13,1.469-0.611,2.301-0.384
	c2.345,0.642,4.653,1.51,7.04,1.88c2.502,0.388,5.077,0.387,7.621,0.387c1.401,0,2.544-0.744,3.007-2.172
	c0.488-1.509,0.344-2.977-0.85-4.108c-0.861-0.817-1.835-1.545-2.844-2.176c-2.471-1.548-4.997-3.007-7.488-4.523
	c-0.92-0.56-1.813-1.166-2.703-1.775c-4.35-2.976-4.416-7.592-2.82-11.641c0.905-2.296,2.816-3.585,5.17-4.042
	c5.672-1.101,11.134-0.28,16.354,2.137c1.336,0.619,1.87,3.414,0.796,4.452c-0.368,0.356-1.324,0.325-1.936,0.169
	c-2.159-0.551-4.254-1.4-6.435-1.813c-1.904-0.361-3.892-0.388-5.841-0.37c-1.486,0.014-2.855,0.538-3.462,2.112
	c-0.622,1.613-0.297,3.106,0.863,4.33c0.676,0.713,1.506,1.315,2.354,1.823c2.569,1.541,5.189,2.995,7.771,4.517
	c0.961,0.567,1.89,1.198,2.795,1.853c4.009,2.896,4.549,6.664,3.089,11.195c-0.815,2.529-2.77,3.994-5.291,4.572
	C356.694,86.955,354.93,87.063,353.194,87.298z"/>
<path fill-rule="evenodd" clip-rule="evenodd" fill="none" stroke="#000000" stroke-miterlimit="10" d="M324.118,81.094
	c0.565-5.709,1.142-11.59,1.731-17.469c0.771-7.666,1.546-15.332,2.33-22.997c0.189-1.859,0.704-2.268,2.565-2.122
	c0.278,0.022,0.557,0.055,0.834,0.084c1.73,0.182,2.263,0.767,2.099,2.501c-0.395,4.173-0.835,8.342-1.255,12.513
	c-0.763,7.586-1.526,15.173-2.287,22.76c-0.18,1.788-0.327,3.579-0.526,5.365c-0.216,1.927-0.811,2.38-2.776,2.189
	c-0.198-0.019-0.396-0.054-0.593-0.084C324.296,83.536,324.02,83.201,324.118,81.094z"/>
<path fill-rule="evenodd" clip-rule="evenodd" fill="none" stroke="#000000" stroke-miterlimit="10" d="M243.23,43.709
	c-0.606,9.023-1.194,17.791-1.787,26.558c-0.094,1.395-0.208,2.788-0.316,4.182c-0.081,1.048-0.623,1.609-1.7,1.593
	c-3.583-0.056-3.703-0.421-3.466-3.561c0.722-9.598,1.319-19.206,1.972-28.809c0.13-1.923,0.45-2.212,2.325-2.187
	c0.279,0.003,0.559,0.013,0.838,0.037C242.887,41.672,243.289,42.137,243.23,43.709z"/>
<path fill-rule="evenodd" clip-rule="evenodd" fill="none" stroke="#000000" stroke-miterlimit="10" d="M237.961,30.808
	c-0.012-1.976,1.501-3.488,3.488-3.485c1.889,0.002,3.445,1.555,3.439,3.432c-0.005,1.916-1.528,3.423-3.441,3.405
	C239.455,34.141,237.972,32.715,237.961,30.808z"/>
</svg>
